<svg width="28" height="28" viewBox="0 0 28 28" fill="none" xmlns="http://www.w3.org/2000/svg">
<path d="M14.0039 5.90128e-07C11.2347 -0.000803316 8.52739 0.819755 6.22454 2.35774C3.92164 3.89579 2.12663 6.08224 1.06651 8.64055C0.00633254 11.1989 -0.271245 14.0141 0.268808 16.7303C0.80886 19.4464 2.14231 21.9413 4.10051 23.8995C6.05871 25.8577 8.55363 27.191 11.2697 27.7311C13.9859 28.2711 16.8011 27.9936 19.3593 26.9335C21.9177 25.8733 24.1042 24.0784 25.6423 21.7754C27.1803 19.4726 28.0009 16.7652 28 13.9959C27.9958 10.2853 26.5199 6.72777 23.8961 4.10394C21.2722 1.48011 17.7147 0.00419238 14.0039 5.90128e-07ZM20.3604 18.5409C20.4787 18.6586 20.5723 18.7985 20.6365 18.9526C20.7004 19.1066 20.7333 19.2718 20.7333 19.4387C20.7333 19.6055 20.7004 19.7707 20.6365 19.9248C20.5723 20.0789 20.4787 20.2187 20.3604 20.3365C20.119 20.573 19.7946 20.7055 19.4567 20.7055C19.1187 20.7055 18.7942 20.5731 18.5528 20.3365L14.0039 15.7916L9.45917 20.3365C9.22036 20.5732 8.89765 20.7061 8.56133 20.7061C8.22501 20.7061 7.9023 20.5732 7.66348 20.3365C7.5453 20.2187 7.45148 20.0789 7.38751 19.9248C7.32354 19.7707 7.29058 19.6055 7.29058 19.4387C7.29058 19.2718 7.32354 19.1066 7.38751 18.9526C7.45148 18.7985 7.5453 18.6586 7.66348 18.5409L12.2083 13.9841L7.66348 9.4432C7.44436 9.20139 7.32664 8.88454 7.33468 8.55833C7.34272 8.23211 7.47588 7.92146 7.70666 7.69068C7.93744 7.45996 8.24809 7.32674 8.5743 7.3187C8.90052 7.31066 9.21737 7.42838 9.45917 7.6475L14.0039 12.1884L18.5449 7.6475C18.7852 7.40903 19.1101 7.27518 19.4487 7.27518C19.7872 7.27518 20.1121 7.40903 20.3525 7.6475C20.4707 7.76527 20.5644 7.90515 20.6284 8.05921C20.6924 8.21328 20.7253 8.37848 20.7253 8.54535C20.7253 8.71216 20.6924 8.87736 20.6284 9.03142C20.5644 9.18549 20.4706 9.32542 20.3525 9.44314L15.8116 13.984L20.3604 18.5409Z" fill="#F36262"/>
</svg>
