<svg width="28" height="28" viewBox="0 0 28 28" fill="none" xmlns="http://www.w3.org/2000/svg">
<path fill-rule="evenodd" clip-rule="evenodd" d="M0 14C0 6.26801 6.26801 0 14 0C21.7319 0 28 6.26801 28 14C28 21.7319 21.7319 28 14 28C6.26801 28 0 21.7319 0 14ZM10.279 20.5496C10.5493 20.8425 10.9316 21.0062 11.3302 20.9999C11.7286 20.9934 12.1055 20.8174 12.3663 20.5162L22.0587 9.31613C22.5646 8.73146 22.5008 7.84732 21.9162 7.34136C21.3315 6.8354 20.4473 6.8992 19.9413 7.48387L11.2741 17.4994L8.02872 13.9838C7.50427 13.4156 6.61854 13.3802 6.05039 13.9047C5.48225 14.4291 5.44683 15.3147 5.97127 15.883L10.279 20.5496Z" fill="#0CD998"/>
</svg>
