<svg width="49" height="48" viewBox="0 0 49 48" fill="none" xmlns="http://www.w3.org/2000/svg">
<path d="M6.33008 32.3047V35.4587C6.33008 39.7567 9.8161 43.2427 14.1161 43.2427H16.6301" stroke="#0043E0" stroke-width="3" stroke-linecap="round" stroke-linejoin="round"/>
<path d="M42.3347 32.3047V35.4587C42.3347 39.7567 38.8487 43.2427 34.5487 43.2427H31.9707" stroke="#0043E0" stroke-width="3" stroke-linecap="round" stroke-linejoin="round"/>
<path d="M6.33008 18.1802V15.0262C6.33008 10.7282 9.8161 7.24219 14.1161 7.24219H16.6941" stroke="#0043E0" stroke-width="3" stroke-linecap="round" stroke-linejoin="round"/>
<path d="M42.3371 18.1802V15.0262C42.3371 10.7282 38.8511 7.24219 34.5511 7.24219H32.0371" stroke="#0043E0" stroke-width="3" stroke-linecap="round" stroke-linejoin="round"/>
<path fill-rule="evenodd" clip-rule="evenodd" d="M27.9532 34.2618H20.7112C18.7253 34.2618 17.1152 32.6518 17.1152 30.6678V26.6018C17.1152 24.6158 18.7253 23.0078 20.7112 23.0078H27.9532C29.9392 23.0078 31.5472 24.6158 31.5472 26.6018V30.6678C31.5472 32.6518 29.9392 34.2618 27.9532 34.2618Z" stroke="#31B7FF" stroke-width="3" stroke-linecap="round" stroke-linejoin="round"/>
<path d="M28.6597 23.0692V20.4892C28.6297 18.1011 26.6717 16.1891 24.2817 16.2191C21.9437 16.2491 20.0537 18.1311 20.0137 20.4712V23.0692" stroke="#31B7FF" stroke-width="3" stroke-linecap="round" stroke-linejoin="round"/>
</svg>
